<mxfile host="Electron" modified="2024-01-05T14:15:07.191Z" agent="Mozilla/5.0 (Windows NT 10.0; Win64; x64) AppleWebKit/537.36 (KHTML, like Gecko) draw.io/22.1.16 Chrome/120.0.6099.109 Electron/28.1.0 Safari/537.36" etag="v4YuXB4fnfiQwcj-XWyR" compressed="false" version="22.1.16" type="device">
  <diagram id="zNMCXYOBYckHPa1j1fsk" name="Seite-1">
    <mxGraphModel dx="1434" dy="836" grid="1" gridSize="10" guides="1" tooltips="1" connect="1" arrows="1" fold="1" page="1" pageScale="1" pageWidth="827" pageHeight="1169" math="0" shadow="0">
      <root>
        <object tooltip="" id="0">
          <ag_global_attributes>
            <ag_global_attribute name="Resources" value="" iconName="hammer" min="0" max="5" />
            <ag_global_attribute name="Knowledge" value="" iconName="lightbulb" min="0" max="5" />
            <ag_global_attribute name="Location" value="" iconName="map_pin_ellipse" min="0" max="1" />
            <ag_global_attribute name="Impact" value="" iconName="flame" min="0" max="5" />
          </ag_global_attributes>
          <ag_attributes />
          <ag_computed_attributes />
          <ag_aggregation_functions>
            <ag_aggregation_function name="default" id="6b1d22791hih8" default="activity_w;link" fn="function (collection) { &#10;    var result = null; &#10;    if (collection.childAttributes.length == 1) { &#10;        result = collection.childAttributes[0].attributes;&#10;        result._marking = collection.childAttributes[0].id;&#10;    } else { &#10;        var candidates = []; &#10;        var worstValue = 0; &#10;        collection.childAttributes.forEach(function(child) { &#10;            var value = parseInt(child.computedAttribute); &#10;            if (value &gt; worstValue) { &#10;                worstValue = value; &#10;                candidates = []; &#10;                candidates.push(child); &#10;            } else if (value == worstValue) { &#10;                candidates.push(child); &#10;            } &#10;        }); &#10;        var tiebreaker = function(candidates, name, max) { &#10;            var min_value = max; &#10;            candidates.forEach(function(node) { &#10;                min_value = Math.min(min_value, node.attributes[name]); &#10;            }); &#10;            result = []; &#10;            candidates.forEach(function(node) { &#10;                if (node.attributes[name] == min_value) { &#10;                    result.push(node); &#10;                } &#10;            }); &#10;            return result; &#10;        }; &#10;        if (candidates.length &gt; 1) { &#10;            candidates = tiebreaker(candidates, &quot;Resources&quot;, collection.globalAttributes[&quot;Resources&quot;].max); &#10;            if (candidates.length &gt; 1) { &#10;                candidates = tiebreaker(candidates, &quot;Knowledge&quot;, collection.globalAttributes[&quot;Knowledge&quot;].max); &#10;            } &#10;        } &#10;        result = candidates[0].attributes;&#10;        result._marking = candidates[0].id;&#10;    } &#10;    return result; &#10;}" />
            <ag_aggregation_function name="AND" id="gf0d4f199018" default="and" fn="function (collection) { &#10;    var result = {}; &#10;    var ids = [];&#10;    collection.childAttributes.forEach(function(child) { &#10;    for (var attribute in child.attributes) { &#10;            if (attribute in result) { &#10;                result[attribute] += parseInt(child.attributes[attribute]); &#10;            } else { &#10;                result[attribute] = parseInt(child.attributes[attribute]); &#10;            } &#10;        }&#10;        ids.push(child.id);&#10;    }); &#10;    for (var attribute in result) { &#10;        if (attribute in collection.globalAttributes) { &#10;            result[attribute] = Math.min(collection.globalAttributes[attribute].max, result[attribute]); &#10;        } &#10;    }&#10;    result._marking = ids.join(&quot;;&quot;);&#10;    return result; &#10;}" />
            <ag_aggregation_function name="Security Control" id="73f575i0ghij5" default="activity_g;activity_y" fn="function (collection) { &#10;    var result = {}; &#10;    for (var attribute in collection.localAttributes) { &#10;        result[attribute] = parseInt(collection.localAttributes[attribute]); &#10;    } &#10;    collection.childAttributes.forEach(function(child) { &#10;        for (var attribute in child.attributes) { &#10;            if (attribute in collection.globalAttributes) { &#10;                if (attribute in result) { &#10;                    result[attribute] += parseInt(child.attributes[attribute]); &#10;                } &#10;            } &#10;        } &#10;    }); &#10;    for (var attribute in result) { &#10;        if (attribute in collection.globalAttributes) { &#10;            result[attribute] = Math.min(collection.globalAttributes[attribute].max, result[attribute]); &#10;        } &#10;    } &#10;    return result; &#10;}" />
            <ag_aggregation_function name="Risk" id="egf49jfgj408" default="consequence" fn="function (collection) {  &#10;    var maxRisk = &quot;L&quot;; &#10;    var matrix = [ &#10;        [&quot;L&quot;, &quot;L&quot;, &quot;L&quot;, &quot;L&quot;, &quot;L&quot;], &#10;        [&quot;L&quot;, &quot;L&quot;, &quot;M&quot;, &quot;M&quot;, &quot;M&quot;], &#10;        [&quot;L&quot;, &quot;M&quot;, &quot;M&quot;, &quot;S&quot;, &quot;S&quot;], &#10;        [&quot;L&quot;, &quot;M&quot;, &quot;S&quot;, &quot;V&quot;, &quot;V&quot;], &#10;        [&quot;L&quot;, &quot;M&quot;, &quot;S&quot;, &quot;V&quot;, &quot;V&quot;], &#10;    ];&#10;    var updatedImpacts = [];&#10;    var ids = [];&#10; &#10;    var compareRisk = function(risk1, risk2) { &#10;        /*&#10;        * Returns:&#10;        *  - Null: if one of the parameters is not a character representing a risk&#10;        *  - Negativ integer: if risk1 &lt; risk2&#10;        *  - Zero: if risks are equal&#10;        *  - Positive integer: if risk1 &gt; risk2&#10;        */&#10;        var values = [&quot;L&quot;, &quot;M&quot;, &quot;S&quot;, &quot;V&quot;]; &#10;        var index_risk1 = values.indexOf(risk1); &#10;        var index_risk2 = values.indexOf(risk2); &#10; &#10;        if (index_risk1 == -1 || index_risk2 == -1) { &#10;            return null; &#10;        } &#10;        return index_risk1 - index_risk2; &#10; &#10;    } &#10;     &#10;    collection.childAttributes.forEach(function(child) {  &#10;        var impact = 1;  &#10;        if (child.edgeWeight !== null) {  &#10;            impact = parseInt(child.edgeWeight);  &#10;        }&#10;        var _impact = parseInt(child.attributes._impact) || 0;&#10;        impact = Math.max(impact - _impact, 1);&#10;        updatedImpacts.push(child.id + ':' + impact);&#10;        var af = parseInt(child.computedAttribute) || parseInt(child.attributes._af);&#10;        risk = matrix[af - 1][impact - 1];&#10;        result = compareRisk(risk, maxRisk);&#10;        if (result &gt; 0) { &#10;            maxRisk = risk;&#10;            ids = [child.id];&#10;        } else if (result == 0){&#10;            ids.push(child.id);&#10;        }&#10;    });  &#10;  &#10;    var result = {'_risk': maxRisk, &quot;_marking&quot;: ids.join(&quot;;&quot;)};&#10;    if (updatedImpacts.length &gt; 0) {&#10;        result._weight = updatedImpacts.join(';');&#10;    }&#10;    return result;&#10;}" />
            <ag_aggregation_function name="Impact" id="397423adceb0f" default="" fn="function(collection) {&#10;    var impact = 0;&#10;    var result = {}&#10;    &#10;    collection.childAttributes.forEach(function(child) {&#10;        if (&quot;Impact&quot; in child.attributes) {&#10;            impact += parseInt(child.attributes[&quot;Impact&quot;]);&#10;        } else if (&quot;Resources&quot; in child.attributes &amp;&amp; &quot;Knowledge&quot; in child.attributes &amp;&amp; &quot;Location&quot; in child.attributes) {&#10;            result._af = child.computedAttribute&#10;            result._marking = child.id;&#10;        }&#10;    });&#10;    result._impact = Math.min(impact, collection.globalAttributes[&quot;Impact&quot;].max);&#10;    &#10;    return result;&#10;}" />
          </ag_aggregation_functions>
          <ag_computed_attributes_functions>
            <ag_computed_attributes_function name="default" id="dbg60ff69g9a" default="activity_w;activity_g;activity_y" fn="function (collection) { &#10;    var colorMatrix = {&#10;        5: {&quot;fillColor&quot;: &quot;#cc0000&quot;, &quot;fontColor&quot;: &quot;#ffffff&quot;},&#10;        4: {&quot;fillColor&quot;: &quot;#ff4000&quot;, &quot;fontColor&quot;: &quot;#ffffff&quot;},&#10;        3: {&quot;fillColor&quot;: &quot;#ffdd00&quot;, &quot;fontColor&quot;: &quot;#000000&quot;},&#10;        2: {&quot;fillColor&quot;: &quot;#d4ff00&quot;, &quot;fontColor&quot;: &quot;#000000&quot;},&#10;        1: {&quot;fillColor&quot;: &quot;#40ff00&quot;, &quot;fontColor&quot;: &quot;#000000&quot;}&#10;    }&#10;    var matrix = [ &#10;        [5, 5, 4, 3, 2], &#10;        [5, 4, 4, 3, 2], &#10;        [5, 4, 4, 3, 2], &#10;        [4, 3, 3, 2, 1], &#10;        [3, 2, 2, 1, 1], &#10;    ];&#10;    var result = {};&#10;    &#10;    if (&quot;Knowledge&quot; in collection.cellAttributes &amp;&amp; &quot;Resources&quot; in collection.cellAttributes) {&#10;        var knowledgeIndex = parseInt(collection.cellAttributes[&quot;Knowledge&quot;]) - 1; &#10;        var resourcesIndex = parseInt(collection.cellAttributes[&quot;Resources&quot;]) - 1;&#10;        &#10;        var value = Math.min(5, &#10;            Math.max(collection.globalAttributes[&quot;Location&quot;].max, &#10;                Math.max( matrix[knowledgeIndex][resourcesIndex] - parseInt(collection.cellAttributes[&quot;Location&quot;])) &#10;            ));&#10;        result = colorMatrix[value] || result;&#10;        result[&quot;value&quot;] = value;&#10;    }&#10;    &#10;    return result;&#10;}" />
            <ag_computed_attributes_function name="Risk" id="6c831697g9i0a" default="" fn="function(collection){&#10;    var riskMatrix = {&#10;        &quot;V&quot;: {&quot;fillColor&quot;: &quot;#cc0000&quot;, &quot;fontColor&quot;: &quot;#ffffff&quot;},&#10;        &quot;S&quot;: {&quot;fillColor&quot;: &quot;#ff4000&quot;, &quot;fontColor&quot;: &quot;#ffffff&quot;},&#10;        &quot;M&quot;: {&quot;fillColor&quot;: &quot;#ffdd00&quot;, &quot;fontColor&quot;: &quot;#000000&quot;},&#10;        &quot;L&quot;: {&quot;fillColor&quot;: &quot;#40ff00&quot;, &quot;fontColor&quot;: &quot;#000000&quot;},&#10;    };&#10;    var result = {};&#10;    &#10;    if (&quot;_risk&quot; in collection.cellAttributes) {&#10;        var risk = collection.cellAttributes[&quot;_risk&quot;];&#10;        result = riskMatrix[risk] || result;&#10;        result[&quot;value&quot;] = risk;&#10;    }&#10;    &#10;    return result; &#10;}" />
          </ag_computed_attributes_functions>
          <mxCell />
        </object>
        <object tooltip="" id="1">
          <ag_attributes />
          <ag_computed_attributes />
          <mxCell parent="0" />
        </object>
        <object label="Attack Target&#10;Automated Planning and Plan Review" id="-ZSPk6_3D4UuBSjLZNT9-1">
          <ag_attributes />
          <ag_computed_attributes />
          <mxCell style="whiteSpace=wrap;shape=trapezoid;size=0.075;" parent="1" vertex="1">
            <mxGeometry x="730" y="20" width="300" height="60" as="geometry" />
          </mxCell>
        </object>
        <object label="4" id="-ZSPk6_3D4UuBSjLZNT9-7">
          <ag_attributes />
          <ag_computed_attributes />
          <mxCell style="rounded=0;orthogonalLoop=1;jettySize=auto;html=1;strokeWidth=2;fontSize=13;fontStyle=1;strokeColor=#000000;" parent="1" source="-ZSPk6_3D4UuBSjLZNT9-5" target="-ZSPk6_3D4UuBSjLZNT9-6" edge="1">
            <mxGeometry relative="1" as="geometry" />
          </mxCell>
        </object>
        <object label="4" id="4FoC0Xb7QVFsULFS3Stp-19">
          <ag_attributes />
          <ag_computed_attributes />
          <mxCell style="edgeStyle=none;rounded=0;orthogonalLoop=1;jettySize=auto;html=1;strokeWidth=2;strokeColor=#000000;" parent="1" source="-ZSPk6_3D4UuBSjLZNT9-5" target="4FoC0Xb7QVFsULFS3Stp-8" edge="1">
            <mxGeometry relative="1" as="geometry" />
          </mxCell>
        </object>
        <object label="Violation of Physical Integrity" id="-ZSPk6_3D4UuBSjLZNT9-5">
          <ag_aggregation_function_reference ag_aggregation_function_reference="egf49jfgj408" />
          <ag_computed_attributes_function_reference ag_computed_attributes_function_reference="6c831697g9i0a" />
          <ag_attributes _risk="L" _marking="-ZSPk6_3D4UuBSjLZNT9-6;4FoC0Xb7QVFsULFS3Stp-8" _weight="-ZSPk6_3D4UuBSjLZNT9-6:4;4FoC0Xb7QVFsULFS3Stp-8:4" />
          <ag_computed_attributes fillColor="#40ff00" fontColor="#000000" value="L" />
          <mxCell style="shape=attackgraphs.node;rounded=1;whiteSpace=wrap;" parent="1" vertex="1">
            <mxGeometry x="90" y="120" width="210" height="45" as="geometry" />
          </mxCell>
        </object>
        <object id="-ZSPk6_3D4UuBSjLZNT9-2">
          <ag_attributes />
          <ag_computed_attributes />
          <mxCell style="rounded=0;orthogonalLoop=1;jettySize=auto;html=1;strokeWidth=2;strokeColor=#000000;" parent="1" source="4FoC0Xb7QVFsULFS3Stp-9" target="-ZSPk6_3D4UuBSjLZNT9-9" edge="1">
            <mxGeometry relative="1" as="geometry">
              <mxPoint x="850" y="390" as="sourcePoint" />
              <mxPoint x="1125" y="660" as="targetPoint" />
            </mxGeometry>
          </mxCell>
        </object>
        <object id="-ZSPk6_3D4UuBSjLZNT9-3">
          <ag_attributes />
          <ag_computed_attributes />
          <mxCell style="edgeStyle=none;rounded=0;orthogonalLoop=1;jettySize=auto;html=1;strokeWidth=2;strokeColor=#000000;" parent="1" source="-ZSPk6_3D4UuBSjLZNT9-6" target="-ZSPk6_3D4UuBSjLZNT9-10" edge="1">
            <mxGeometry relative="1" as="geometry" />
          </mxCell>
        </object>
        <object label="Manipulate Digital Twin" id="-ZSPk6_3D4UuBSjLZNT9-6">
          <ag_aggregation_function_reference ag_aggregation_function_reference="6b1d22791hih8" />
          <ag_computed_attributes_function_reference ag_computed_attributes_function_reference="dbg60ff69g9a" />
          <ag_attributes label="NaN" Resources="5" Knowledge="5" Location="1" _marking="-ZSPk6_3D4UuBSjLZNT9-10" />
          <ag_computed_attributes fillColor="#40ff00" fontColor="#000000" value="1" />
          <mxCell style="shape=attackgraphs.node;whiteSpace=wrap;verticalAlign=top;" parent="1" vertex="1">
            <mxGeometry x="415" y="350" width="150" height="75" as="geometry" />
          </mxCell>
        </object>
        <object id="pGx4nGiqQ51gGt1jWvF4-18">
          <ag_attributes />
          <ag_computed_attributes />
          <mxCell style="edgeStyle=none;rounded=0;orthogonalLoop=1;jettySize=auto;html=1;strokeWidth=2;startArrow=diamondThin;startFill=1;endArrow=none;endFill=0;strokeColor=#000000;" parent="1" source="-ZSPk6_3D4UuBSjLZNT9-9" target="pGx4nGiqQ51gGt1jWvF4-17" edge="1">
            <mxGeometry relative="1" as="geometry" />
          </mxCell>
        </object>
        <object id="pGx4nGiqQ51gGt1jWvF4-19">
          <ag_attributes />
          <ag_computed_attributes />
          <mxCell style="edgeStyle=none;rounded=0;orthogonalLoop=1;jettySize=auto;html=1;strokeWidth=2;startArrow=diamondThin;startFill=1;endArrow=none;endFill=0;strokeColor=#000000;" parent="1" source="-ZSPk6_3D4UuBSjLZNT9-9" target="VVgaZvm0cS7WgkDVir1b-3" edge="1">
            <mxGeometry relative="1" as="geometry" />
          </mxCell>
        </object>
        <object id="pGx4nGiqQ51gGt1jWvF4-20">
          <ag_attributes />
          <ag_computed_attributes />
          <mxCell style="edgeStyle=none;rounded=0;orthogonalLoop=1;jettySize=auto;html=1;strokeWidth=2;startArrow=diamondThin;startFill=1;endArrow=none;endFill=0;strokeColor=#000000;" parent="1" source="-ZSPk6_3D4UuBSjLZNT9-9" target="pGx4nGiqQ51gGt1jWvF4-16" edge="1">
            <mxGeometry relative="1" as="geometry" />
          </mxCell>
        </object>
        <object label="Manipulate ML model" Resources="4" Knowledge="4" Location="0" id="-ZSPk6_3D4UuBSjLZNT9-9">
          <ag_aggregation_function_reference ag_aggregation_function_reference="73f575i0ghij5" />
          <ag_computed_attributes_function_reference ag_computed_attributes_function_reference="dbg60ff69g9a" />
          <ag_attributes label="NaN" Resources="5" Knowledge="5" Location="0" />
          <ag_computed_attributes fillColor="#40ff00" fontColor="#000000" value="1" />
          <mxCell style="shape=attackgraphs.node;fillColor=#D7E3BF;verticalAlign=top;spacingRight=20;" parent="1" vertex="1">
            <mxGeometry x="1050" y="650" width="150" height="75" as="geometry" />
          </mxCell>
        </object>
        <object id="-ZSPk6_3D4UuBSjLZNT9-17">
          <ag_attributes />
          <ag_computed_attributes />
          <mxCell style="edgeStyle=none;rounded=0;orthogonalLoop=1;jettySize=auto;html=1;strokeWidth=2;strokeColor=#000000;" parent="1" source="-ZSPk6_3D4UuBSjLZNT9-10" target="4FoC0Xb7QVFsULFS3Stp-5" edge="1">
            <mxGeometry relative="1" as="geometry">
              <mxPoint x="450" y="690" as="targetPoint" />
            </mxGeometry>
          </mxCell>
        </object>
        <object id="4FoC0Xb7QVFsULFS3Stp-7">
          <ag_attributes />
          <ag_computed_attributes />
          <mxCell style="rounded=0;orthogonalLoop=1;jettySize=auto;html=1;strokeWidth=2;strokeColor=#000000;" parent="1" source="-ZSPk6_3D4UuBSjLZNT9-10" target="4FoC0Xb7QVFsULFS3Stp-6" edge="1">
            <mxGeometry relative="1" as="geometry">
              <mxPoint x="600" y="660" as="targetPoint" />
            </mxGeometry>
          </mxCell>
        </object>
        <object label="Desynchronization of Model and Reality" id="-ZSPk6_3D4UuBSjLZNT9-10">
          <ag_aggregation_function_reference ag_aggregation_function_reference="6b1d22791hih8" />
          <ag_computed_attributes_function_reference ag_computed_attributes_function_reference="dbg60ff69g9a" />
          <ag_attributes label="NaN" Resources="5" Knowledge="5" Location="1" _marking="4FoC0Xb7QVFsULFS3Stp-5" />
          <ag_computed_attributes fillColor="#40ff00" fontColor="#000000" value="1" />
          <mxCell style="shape=attackgraphs.node;whiteSpace=wrap;verticalAlign=top;spacingRight=20;" parent="1" vertex="1">
            <mxGeometry x="415" y="480" width="150" height="75" as="geometry" />
          </mxCell>
        </object>
        <object id="pGx4nGiqQ51gGt1jWvF4-6">
          <ag_attributes />
          <ag_computed_attributes />
          <mxCell style="edgeStyle=none;rounded=0;orthogonalLoop=1;jettySize=auto;html=1;strokeWidth=2;startArrow=diamondThin;startFill=1;endArrow=none;endFill=0;strokeColor=#000000;" parent="1" source="-ZSPk6_3D4UuBSjLZNT9-11" target="VVgaZvm0cS7WgkDVir1b-3" edge="1">
            <mxGeometry relative="1" as="geometry" />
          </mxCell>
        </object>
        <object id="pGx4nGiqQ51gGt1jWvF4-11">
          <ag_attributes />
          <ag_computed_attributes />
          <mxCell style="edgeStyle=none;rounded=0;orthogonalLoop=1;jettySize=auto;html=1;strokeWidth=2;startArrow=diamondThin;startFill=1;endArrow=none;endFill=0;strokeColor=#000000;" parent="1" source="-ZSPk6_3D4UuBSjLZNT9-11" target="VVgaZvm0cS7WgkDVir1b-1" edge="1">
            <mxGeometry relative="1" as="geometry" />
          </mxCell>
        </object>
        <object label="Manipulate Digitalization of Existing Plans" Resources="2" Knowledge="3" Location="1" id="-ZSPk6_3D4UuBSjLZNT9-11">
          <ag_aggregation_function_reference ag_aggregation_function_reference="73f575i0ghij5" />
          <ag_computed_attributes_function_reference ag_computed_attributes_function_reference="dbg60ff69g9a" />
          <ag_attributes label="NaN" Resources="5" Knowledge="5" Location="1" />
          <ag_computed_attributes fillColor="#40ff00" fontColor="#000000" value="1" />
          <mxCell style="shape=attackgraphs.node;fillColor=#D7E3BF;whiteSpace=wrap;verticalAlign=top;spacingRight=20;" parent="1" vertex="1">
            <mxGeometry x="460" y="807.5" width="150" height="82.5" as="geometry" />
          </mxCell>
        </object>
        <object id="pGx4nGiqQ51gGt1jWvF4-4">
          <ag_attributes />
          <ag_computed_attributes />
          <mxCell style="rounded=0;orthogonalLoop=1;jettySize=auto;html=1;strokeWidth=2;startArrow=diamondThin;startFill=1;endArrow=none;endFill=0;strokeColor=#000000;" parent="1" source="-ZSPk6_3D4UuBSjLZNT9-13" target="pGx4nGiqQ51gGt1jWvF4-3" edge="1">
            <mxGeometry relative="1" as="geometry" />
          </mxCell>
        </object>
        <object id="pGx4nGiqQ51gGt1jWvF4-7">
          <ag_attributes />
          <ag_computed_attributes />
          <mxCell style="edgeStyle=none;rounded=0;orthogonalLoop=1;jettySize=auto;html=1;strokeWidth=2;startArrow=diamondThin;startFill=1;endArrow=none;endFill=0;strokeColor=#000000;" parent="1" source="-ZSPk6_3D4UuBSjLZNT9-13" target="pGx4nGiqQ51gGt1jWvF4-2" edge="1">
            <mxGeometry relative="1" as="geometry" />
          </mxCell>
        </object>
        <object id="pGx4nGiqQ51gGt1jWvF4-10">
          <ag_attributes />
          <ag_computed_attributes />
          <mxCell style="edgeStyle=none;rounded=0;orthogonalLoop=1;jettySize=auto;html=1;strokeWidth=2;startArrow=diamondThin;startFill=1;endArrow=none;endFill=0;strokeColor=#000000;" parent="1" source="-ZSPk6_3D4UuBSjLZNT9-13" target="VVgaZvm0cS7WgkDVir1b-1" edge="1">
            <mxGeometry relative="1" as="geometry" />
          </mxCell>
        </object>
        <object label="Manipulate Digitalization of Environment (Lidar-/Laser-Scanner, Image Recognition)" Resources="3" Knowledge="3" Location="1" id="-ZSPk6_3D4UuBSjLZNT9-13">
          <ag_aggregation_function_reference ag_aggregation_function_reference="73f575i0ghij5" />
          <ag_computed_attributes_function_reference ag_computed_attributes_function_reference="dbg60ff69g9a" />
          <ag_attributes label="NaN" Resources="5" Knowledge="5" Location="1" />
          <ag_computed_attributes fillColor="#40ff00" fontColor="#000000" value="1" />
          <mxCell style="shape=attackgraphs.node;fillColor=#D7E3BF;whiteSpace=wrap;verticalAlign=top;spacingRight=20;" parent="1" vertex="1">
            <mxGeometry x="240" y="807.5" width="175" height="82.5" as="geometry" />
          </mxCell>
        </object>
        <object id="-ZSPk6_3D4UuBSjLZNT9-18">
          <ag_attributes />
          <ag_computed_attributes />
          <mxCell style="edgeStyle=none;rounded=0;orthogonalLoop=1;jettySize=auto;html=1;strokeWidth=2;strokeColor=#000000;" parent="1" source="4FoC0Xb7QVFsULFS3Stp-5" target="-ZSPk6_3D4UuBSjLZNT9-11" edge="1">
            <mxGeometry relative="1" as="geometry">
              <mxPoint x="418.63636363636374" y="800" as="sourcePoint" />
            </mxGeometry>
          </mxCell>
        </object>
        <object id="-ZSPk6_3D4UuBSjLZNT9-19">
          <ag_attributes />
          <ag_computed_attributes />
          <mxCell style="edgeStyle=none;rounded=0;orthogonalLoop=1;jettySize=auto;html=1;strokeWidth=2;strokeColor=#000000;" parent="1" source="4FoC0Xb7QVFsULFS3Stp-5" target="-ZSPk6_3D4UuBSjLZNT9-13" edge="1">
            <mxGeometry relative="1" as="geometry">
              <mxPoint x="453" y="800" as="sourcePoint" />
            </mxGeometry>
          </mxCell>
        </object>
        <object label="4" id="-ZSPk6_3D4UuBSjLZNT9-27">
          <ag_attributes />
          <ag_computed_attributes />
          <mxCell style="edgeStyle=none;rounded=0;orthogonalLoop=1;jettySize=auto;html=1;strokeWidth=2;fontSize=13;startArrow=none;startFill=0;endArrow=classic;endFill=1;fontStyle=1;strokeColor=#000000;" parent="1" source="-ZSPk6_3D4UuBSjLZNT9-26" target="-ZSPk6_3D4UuBSjLZNT9-6" edge="1">
            <mxGeometry relative="1" as="geometry" />
          </mxCell>
        </object>
        <object label="4" id="4FoC0Xb7QVFsULFS3Stp-20">
          <ag_attributes />
          <ag_computed_attributes />
          <mxCell style="edgeStyle=none;rounded=0;orthogonalLoop=1;jettySize=auto;html=1;strokeWidth=2;strokeColor=#000000;" parent="1" source="-ZSPk6_3D4UuBSjLZNT9-26" target="4FoC0Xb7QVFsULFS3Stp-8" edge="1">
            <mxGeometry relative="1" as="geometry" />
          </mxCell>
        </object>
        <object label="Financial Damage Operator" id="-ZSPk6_3D4UuBSjLZNT9-26">
          <ag_aggregation_function_reference ag_aggregation_function_reference="egf49jfgj408" />
          <ag_computed_attributes_function_reference ag_computed_attributes_function_reference="6c831697g9i0a" />
          <ag_attributes _risk="L" _marking="-ZSPk6_3D4UuBSjLZNT9-6;4FoC0Xb7QVFsULFS3Stp-8" _weight="-ZSPk6_3D4UuBSjLZNT9-6:4;4FoC0Xb7QVFsULFS3Stp-8:4" />
          <ag_computed_attributes fillColor="#40ff00" fontColor="#000000" value="L" />
          <mxCell style="shape=attackgraphs.node;rounded=1;whiteSpace=wrap;" parent="1" vertex="1">
            <mxGeometry x="352" y="120" width="210" height="45" as="geometry" />
          </mxCell>
        </object>
        <object id="g8WqiLtUgzYV8B5UEu1g-1">
          <ag_global_attributes>
            <ag_global_attribute name="Resources" value="" iconName="hammer" min="0" max="5" />
            <ag_global_attribute name="Knowledge" value="" iconName="lightbulb" min="0" max="5" />
            <ag_global_attribute name="Location" value="" iconName="map_pin_ellipse" min="0" max="1" />
          </ag_global_attributes>
          <ag_attributes />
          <ag_computed_attributes />
          <mxCell style="shape=attackgraphs.iconLegend;" parent="1" vertex="1">
            <mxGeometry x="30" y="350" width="150" height="180" as="geometry" />
          </mxCell>
        </object>
        <object label="3" id="4FoC0Xb7QVFsULFS3Stp-21">
          <ag_attributes />
          <ag_computed_attributes />
          <mxCell style="edgeStyle=none;rounded=0;orthogonalLoop=1;jettySize=auto;html=1;strokeWidth=2;strokeColor=#000000;" parent="1" source="4FoC0Xb7QVFsULFS3Stp-1" target="-ZSPk6_3D4UuBSjLZNT9-6" edge="1">
            <mxGeometry relative="1" as="geometry" />
          </mxCell>
        </object>
        <object label="3" id="4FoC0Xb7QVFsULFS3Stp-22">
          <ag_attributes />
          <ag_computed_attributes />
          <mxCell style="edgeStyle=none;rounded=0;orthogonalLoop=1;jettySize=auto;html=1;strokeWidth=2;strokeColor=#000000;" parent="1" source="4FoC0Xb7QVFsULFS3Stp-1" target="4FoC0Xb7QVFsULFS3Stp-8" edge="1">
            <mxGeometry relative="1" as="geometry" />
          </mxCell>
        </object>
        <object label="Reputational Damage Operator" id="4FoC0Xb7QVFsULFS3Stp-1">
          <ag_aggregation_function_reference ag_aggregation_function_reference="egf49jfgj408" />
          <ag_computed_attributes_function_reference ag_computed_attributes_function_reference="6c831697g9i0a" />
          <ag_attributes _risk="L" _marking="-ZSPk6_3D4UuBSjLZNT9-6;4FoC0Xb7QVFsULFS3Stp-8" _weight="-ZSPk6_3D4UuBSjLZNT9-6:3;4FoC0Xb7QVFsULFS3Stp-8:3" />
          <ag_computed_attributes fillColor="#40ff00" fontColor="#000000" value="L" />
          <mxCell style="shape=attackgraphs.node;rounded=1" parent="1" vertex="1">
            <mxGeometry x="614" y="120" width="210" height="45" as="geometry" />
          </mxCell>
        </object>
        <object label="2" id="4FoC0Xb7QVFsULFS3Stp-23">
          <ag_attributes />
          <ag_computed_attributes />
          <mxCell style="edgeStyle=none;rounded=0;orthogonalLoop=1;jettySize=auto;html=1;strokeWidth=2;strokeColor=#000000;" parent="1" source="4FoC0Xb7QVFsULFS3Stp-2" target="pGx4nGiqQ51gGt1jWvF4-28" edge="1">
            <mxGeometry relative="1" as="geometry" />
          </mxCell>
        </object>
        <object label="2" id="4FoC0Xb7QVFsULFS3Stp-24">
          <ag_attributes />
          <ag_computed_attributes />
          <mxCell style="edgeStyle=none;rounded=0;orthogonalLoop=1;jettySize=auto;html=1;strokeWidth=2;strokeColor=#000000;" parent="1" source="4FoC0Xb7QVFsULFS3Stp-2" target="pGx4nGiqQ51gGt1jWvF4-31" edge="1">
            <mxGeometry relative="1" as="geometry">
              <mxPoint x="880" y="200" as="sourcePoint" />
            </mxGeometry>
          </mxCell>
        </object>
        <object label="Disruption of a Critical Service" id="4FoC0Xb7QVFsULFS3Stp-2">
          <ag_aggregation_function_reference ag_aggregation_function_reference="egf49jfgj408" />
          <ag_computed_attributes_function_reference ag_computed_attributes_function_reference="6c831697g9i0a" />
          <ag_attributes _risk="L" _marking="pGx4nGiqQ51gGt1jWvF4-28;pGx4nGiqQ51gGt1jWvF4-31" _weight="pGx4nGiqQ51gGt1jWvF4-28:1;pGx4nGiqQ51gGt1jWvF4-31:1" />
          <ag_computed_attributes fillColor="#40ff00" fontColor="#000000" value="L" />
          <mxCell style="shape=attackgraphs.node;rounded=1;whiteSpace=wrap;" parent="1" vertex="1">
            <mxGeometry x="876" y="120" width="210" height="45" as="geometry" />
          </mxCell>
        </object>
        <object label="1" id="4FoC0Xb7QVFsULFS3Stp-25">
          <ag_attributes />
          <ag_computed_attributes />
          <mxCell style="edgeStyle=none;rounded=0;orthogonalLoop=1;jettySize=auto;html=1;strokeWidth=2;strokeColor=#000000;" parent="1" source="4FoC0Xb7QVFsULFS3Stp-3" target="4FoC0Xb7QVFsULFS3Stp-8" edge="1">
            <mxGeometry relative="1" as="geometry" />
          </mxCell>
        </object>
        <object label="1" id="4FoC0Xb7QVFsULFS3Stp-26">
          <ag_attributes />
          <ag_computed_attributes />
          <mxCell style="edgeStyle=none;rounded=0;orthogonalLoop=1;jettySize=auto;html=1;strokeWidth=2;strokeColor=#000000;" parent="1" source="4FoC0Xb7QVFsULFS3Stp-3" target="-ZSPk6_3D4UuBSjLZNT9-6" edge="1">
            <mxGeometry relative="1" as="geometry" />
          </mxCell>
        </object>
        <object label="Violation of Laws and Regulations" id="4FoC0Xb7QVFsULFS3Stp-3">
          <ag_aggregation_function_reference ag_aggregation_function_reference="egf49jfgj408" />
          <ag_computed_attributes_function_reference ag_computed_attributes_function_reference="6c831697g9i0a" />
          <ag_attributes _risk="L" _marking="4FoC0Xb7QVFsULFS3Stp-8;-ZSPk6_3D4UuBSjLZNT9-6" _weight="4FoC0Xb7QVFsULFS3Stp-8:1;-ZSPk6_3D4UuBSjLZNT9-6:1" />
          <ag_computed_attributes fillColor="#40ff00" fontColor="#000000" value="L" />
          <mxCell style="shape=attackgraphs.node;rounded=1;whiteSpace=wrap;" parent="1" vertex="1">
            <mxGeometry x="1138" y="120" width="210" height="45" as="geometry" />
          </mxCell>
        </object>
        <object label="3" id="4FoC0Xb7QVFsULFS3Stp-27">
          <ag_attributes />
          <ag_computed_attributes />
          <mxCell style="edgeStyle=none;rounded=0;orthogonalLoop=1;jettySize=auto;html=1;strokeWidth=2;strokeColor=#000000;" parent="1" source="4FoC0Xb7QVFsULFS3Stp-4" target="4FoC0Xb7QVFsULFS3Stp-8" edge="1">
            <mxGeometry relative="1" as="geometry" />
          </mxCell>
        </object>
        <object label="3" id="4FoC0Xb7QVFsULFS3Stp-28">
          <ag_attributes />
          <ag_computed_attributes />
          <mxCell style="edgeStyle=none;rounded=0;orthogonalLoop=1;jettySize=auto;html=1;strokeWidth=2;strokeColor=#000000;" parent="1" source="4FoC0Xb7QVFsULFS3Stp-4" target="-ZSPk6_3D4UuBSjLZNT9-6" edge="1">
            <mxGeometry relative="1" as="geometry" />
          </mxCell>
        </object>
        <object label="Violation of Property" id="4FoC0Xb7QVFsULFS3Stp-4">
          <ag_aggregation_function_reference ag_aggregation_function_reference="egf49jfgj408" />
          <ag_computed_attributes_function_reference ag_computed_attributes_function_reference="6c831697g9i0a" />
          <ag_attributes _risk="L" _marking="4FoC0Xb7QVFsULFS3Stp-8;-ZSPk6_3D4UuBSjLZNT9-6" _weight="4FoC0Xb7QVFsULFS3Stp-8:3;-ZSPk6_3D4UuBSjLZNT9-6:3" />
          <ag_computed_attributes fillColor="#40ff00" fontColor="#000000" value="L" />
          <mxCell style="shape=attackgraphs.node;rounded=1" parent="1" vertex="1">
            <mxGeometry x="1400" y="120" width="210" height="45" as="geometry" />
          </mxCell>
        </object>
        <object label="Manipulate Data Collection" id="4FoC0Xb7QVFsULFS3Stp-5">
          <ag_aggregation_function_reference ag_aggregation_function_reference="6b1d22791hih8" />
          <ag_computed_attributes_function_reference ag_computed_attributes_function_reference="dbg60ff69g9a" />
          <ag_attributes label="NaN" Resources="5" Knowledge="5" Location="1" _marking="-ZSPk6_3D4UuBSjLZNT9-11" />
          <ag_computed_attributes fillColor="#40ff00" fontColor="#000000" value="1" />
          <mxCell style="shape=attackgraphs.node;whiteSpace=wrap;verticalAlign=top;spacingRight=20;" parent="1" vertex="1">
            <mxGeometry x="340" y="650" width="150" height="75" as="geometry" />
          </mxCell>
        </object>
        <object id="pGx4nGiqQ51gGt1jWvF4-9">
          <ag_attributes />
          <ag_computed_attributes />
          <mxCell style="edgeStyle=none;rounded=0;orthogonalLoop=1;jettySize=auto;html=1;strokeWidth=2;startArrow=diamondThin;startFill=1;endArrow=none;endFill=0;strokeColor=#000000;" parent="1" source="4FoC0Xb7QVFsULFS3Stp-6" target="VVgaZvm0cS7WgkDVir1b-1" edge="1">
            <mxGeometry relative="1" as="geometry" />
          </mxCell>
        </object>
        <object id="pGx4nGiqQ51gGt1jWvF4-14">
          <ag_attributes />
          <ag_computed_attributes />
          <mxCell style="edgeStyle=none;rounded=0;orthogonalLoop=1;jettySize=auto;html=1;strokeWidth=2;startArrow=diamondThin;startFill=1;endArrow=none;endFill=0;strokeColor=#000000;" parent="1" source="4FoC0Xb7QVFsULFS3Stp-6" target="pGx4nGiqQ51gGt1jWvF4-13" edge="1">
            <mxGeometry relative="1" as="geometry" />
          </mxCell>
        </object>
        <object label="Manipulate Data Exchange" Resources="1" Knowledge="3" Location="0" id="4FoC0Xb7QVFsULFS3Stp-6">
          <ag_aggregation_function_reference ag_aggregation_function_reference="73f575i0ghij5" />
          <ag_computed_attributes_function_reference ag_computed_attributes_function_reference="dbg60ff69g9a" />
          <ag_attributes label="NaN" Resources="5" Knowledge="5" Location="1" />
          <ag_computed_attributes fillColor="#40ff00" fontColor="#000000" value="1" />
          <mxCell style="shape=attackgraphs.node;fillColor=#D7E3BF;whiteSpace=wrap;verticalAlign=top;spacingRight=20;" parent="1" vertex="1">
            <mxGeometry x="530" y="650" width="150" height="75" as="geometry" />
          </mxCell>
        </object>
        <object id="4FoC0Xb7QVFsULFS3Stp-15">
          <ag_attributes />
          <ag_computed_attributes />
          <mxCell style="edgeStyle=none;rounded=0;orthogonalLoop=1;jettySize=auto;html=1;strokeWidth=2;entryX=0.5;entryY=0;entryDx=0;entryDy=0;strokeColor=#000000;" parent="1" source="4FoC0Xb7QVFsULFS3Stp-8" target="4FoC0Xb7QVFsULFS3Stp-9" edge="1">
            <mxGeometry relative="1" as="geometry" />
          </mxCell>
        </object>
        <object id="4FoC0Xb7QVFsULFS3Stp-16">
          <ag_attributes />
          <ag_computed_attributes />
          <mxCell style="edgeStyle=none;rounded=0;orthogonalLoop=1;jettySize=auto;html=1;strokeWidth=2;entryX=0.5;entryY=0;entryDx=0;entryDy=0;strokeColor=#000000;" parent="1" source="4FoC0Xb7QVFsULFS3Stp-8" target="4FoC0Xb7QVFsULFS3Stp-10" edge="1">
            <mxGeometry relative="1" as="geometry" />
          </mxCell>
        </object>
        <object label="Manipulating the verification model" id="4FoC0Xb7QVFsULFS3Stp-8">
          <ag_aggregation_function_reference ag_aggregation_function_reference="6b1d22791hih8" />
          <ag_computed_attributes_function_reference ag_computed_attributes_function_reference="dbg60ff69g9a" />
          <ag_attributes label="NaN" Resources="5" Knowledge="5" Location="0" _marking="4FoC0Xb7QVFsULFS3Stp-9" />
          <ag_computed_attributes fillColor="#40ff00" fontColor="#000000" value="1" />
          <mxCell style="shape=attackgraphs.node;whiteSpace=wrap;verticalAlign=top;" parent="1" vertex="1">
            <mxGeometry x="1096" y="350" width="150" height="75" as="geometry" />
          </mxCell>
        </object>
        <object id="4FoC0Xb7QVFsULFS3Stp-14">
          <ag_attributes />
          <ag_computed_attributes />
          <mxCell style="edgeStyle=none;rounded=0;orthogonalLoop=1;jettySize=auto;html=1;strokeWidth=2;strokeColor=#000000;" parent="1" source="4FoC0Xb7QVFsULFS3Stp-9" target="4FoC0Xb7QVFsULFS3Stp-11" edge="1">
            <mxGeometry relative="1" as="geometry" />
          </mxCell>
        </object>
        <object label="distort rules" id="4FoC0Xb7QVFsULFS3Stp-9">
          <ag_aggregation_function_reference ag_aggregation_function_reference="6b1d22791hih8" />
          <ag_computed_attributes_function_reference ag_computed_attributes_function_reference="dbg60ff69g9a" />
          <ag_attributes label="NaN" Resources="5" Knowledge="5" Location="0" _marking="-ZSPk6_3D4UuBSjLZNT9-9" />
          <ag_computed_attributes fillColor="#40ff00" fontColor="#000000" value="1" />
          <mxCell style="shape=attackgraphs.node;verticalAlign=top;spacingRight=20;" parent="1" vertex="1">
            <mxGeometry x="890" y="480" width="150" height="75" as="geometry" />
          </mxCell>
        </object>
        <object id="4FoC0Xb7QVFsULFS3Stp-17">
          <ag_attributes />
          <ag_computed_attributes />
          <mxCell style="edgeStyle=none;rounded=0;orthogonalLoop=1;jettySize=auto;html=1;strokeWidth=2;strokeColor=#000000;" parent="1" source="4FoC0Xb7QVFsULFS3Stp-10" target="4FoC0Xb7QVFsULFS3Stp-12" edge="1">
            <mxGeometry relative="1" as="geometry" />
          </mxCell>
        </object>
        <object id="4FoC0Xb7QVFsULFS3Stp-18">
          <ag_attributes />
          <ag_computed_attributes />
          <mxCell style="edgeStyle=none;rounded=0;orthogonalLoop=1;jettySize=auto;html=1;strokeWidth=2;strokeColor=#000000;" parent="1" source="4FoC0Xb7QVFsULFS3Stp-10" target="4FoC0Xb7QVFsULFS3Stp-13" edge="1">
            <mxGeometry relative="1" as="geometry" />
          </mxCell>
        </object>
        <object label="Falsify Result" id="4FoC0Xb7QVFsULFS3Stp-10">
          <ag_aggregation_function_reference ag_aggregation_function_reference="6b1d22791hih8" />
          <ag_computed_attributes_function_reference ag_computed_attributes_function_reference="dbg60ff69g9a" />
          <ag_attributes label="NaN" Resources="5" Knowledge="5" Location="1" _marking="4FoC0Xb7QVFsULFS3Stp-12" />
          <ag_computed_attributes fillColor="#40ff00" fontColor="#000000" value="1" />
          <mxCell style="shape=attackgraphs.node;verticalAlign=top;spacingRight=20;" parent="1" vertex="1">
            <mxGeometry x="1320" y="480" width="150" height="75" as="geometry" />
          </mxCell>
        </object>
        <object id="pGx4nGiqQ51gGt1jWvF4-21">
          <ag_attributes />
          <ag_computed_attributes />
          <mxCell style="edgeStyle=none;rounded=0;orthogonalLoop=1;jettySize=auto;html=1;strokeWidth=2;startArrow=diamondThin;startFill=1;endArrow=none;endFill=0;strokeColor=#000000;" parent="1" source="4FoC0Xb7QVFsULFS3Stp-11" target="pGx4nGiqQ51gGt1jWvF4-17" edge="1">
            <mxGeometry relative="1" as="geometry" />
          </mxCell>
        </object>
        <object id="pGx4nGiqQ51gGt1jWvF4-22">
          <ag_attributes />
          <ag_computed_attributes />
          <mxCell style="edgeStyle=none;rounded=0;orthogonalLoop=1;jettySize=auto;html=1;strokeWidth=2;startArrow=diamondThin;startFill=1;endArrow=none;endFill=0;strokeColor=#000000;" parent="1" source="4FoC0Xb7QVFsULFS3Stp-11" target="VVgaZvm0cS7WgkDVir1b-2" edge="1">
            <mxGeometry relative="1" as="geometry" />
          </mxCell>
        </object>
        <object label="Manipulate Formal Model" Resources="3" Knowledge="4" Location="0" id="4FoC0Xb7QVFsULFS3Stp-11">
          <ag_aggregation_function_reference ag_aggregation_function_reference="73f575i0ghij5" />
          <ag_computed_attributes_function_reference ag_computed_attributes_function_reference="dbg60ff69g9a" />
          <ag_attributes label="NaN" Resources="5" Knowledge="5" Location="0" />
          <ag_computed_attributes fillColor="#40ff00" fontColor="#000000" value="1" />
          <mxCell style="shape=attackgraphs.node;fillColor=#D7E3BF;whiteSpace=wrap;verticalAlign=top;spacingRight=20;" parent="1" vertex="1">
            <mxGeometry x="777" y="650" width="150" height="75" as="geometry" />
          </mxCell>
        </object>
        <object id="pGx4nGiqQ51gGt1jWvF4-23">
          <ag_attributes />
          <ag_computed_attributes />
          <mxCell style="edgeStyle=none;rounded=0;orthogonalLoop=1;jettySize=auto;html=1;strokeWidth=2;startArrow=diamondThin;startFill=1;endArrow=none;endFill=0;strokeColor=#000000;" parent="1" source="4FoC0Xb7QVFsULFS3Stp-12" target="VVgaZvm0cS7WgkDVir1b-3" edge="1">
            <mxGeometry relative="1" as="geometry" />
          </mxCell>
        </object>
        <object id="pGx4nGiqQ51gGt1jWvF4-25">
          <ag_attributes />
          <ag_computed_attributes />
          <mxCell style="edgeStyle=none;rounded=0;orthogonalLoop=1;jettySize=auto;html=1;strokeWidth=2;startArrow=diamondThin;startFill=1;endArrow=none;endFill=0;strokeColor=#000000;" parent="1" source="4FoC0Xb7QVFsULFS3Stp-12" target="pGx4nGiqQ51gGt1jWvF4-13" edge="1">
            <mxGeometry relative="1" as="geometry" />
          </mxCell>
        </object>
        <object label="Issueing Manipulated Blueprint" Resources="3" Knowledge="4" Location="0" id="4FoC0Xb7QVFsULFS3Stp-12">
          <ag_aggregation_function_reference ag_aggregation_function_reference="73f575i0ghij5" />
          <ag_computed_attributes_function_reference ag_computed_attributes_function_reference="dbg60ff69g9a" />
          <ag_attributes label="NaN" Resources="5" Knowledge="5" Location="1" />
          <ag_computed_attributes fillColor="#40ff00" fontColor="#000000" value="1" />
          <mxCell style="shape=attackgraphs.node;fillColor=#D7E3BF;whiteSpace=wrap;verticalAlign=top;spacingRight=20;" parent="1" vertex="1">
            <mxGeometry x="1230" y="650" width="150" height="75" as="geometry" />
          </mxCell>
        </object>
        <object id="pGx4nGiqQ51gGt1jWvF4-24">
          <ag_attributes />
          <ag_computed_attributes />
          <mxCell style="edgeStyle=none;rounded=0;orthogonalLoop=1;jettySize=auto;html=1;strokeWidth=2;startArrow=diamondThin;startFill=1;endArrow=none;endFill=0;strokeColor=#000000;" parent="1" source="4FoC0Xb7QVFsULFS3Stp-13" target="VVgaZvm0cS7WgkDVir1b-3" edge="1">
            <mxGeometry relative="1" as="geometry">
              <mxPoint x="670" y="972" as="targetPoint" />
            </mxGeometry>
          </mxCell>
        </object>
        <object id="pGx4nGiqQ51gGt1jWvF4-26">
          <ag_attributes />
          <ag_computed_attributes />
          <mxCell style="edgeStyle=none;rounded=0;orthogonalLoop=1;jettySize=auto;html=1;strokeWidth=2;startArrow=diamondThin;startFill=1;endArrow=none;endFill=0;strokeColor=#000000;" parent="1" source="4FoC0Xb7QVFsULFS3Stp-13" target="pGx4nGiqQ51gGt1jWvF4-13" edge="1">
            <mxGeometry relative="1" as="geometry" />
          </mxCell>
        </object>
        <object label="Issueing Forged Certificate" Resources="3" Knowledge="4" Location="0" id="4FoC0Xb7QVFsULFS3Stp-13">
          <ag_aggregation_function_reference ag_aggregation_function_reference="73f575i0ghij5" />
          <ag_computed_attributes_function_reference ag_computed_attributes_function_reference="dbg60ff69g9a" />
          <ag_attributes label="NaN" Resources="5" Knowledge="5" Location="1" />
          <ag_computed_attributes fillColor="#40ff00" fontColor="#000000" value="1" />
          <mxCell style="shape=attackgraphs.node;fillColor=#D7E3BF;whiteSpace=wrap;verticalAlign=top;spacingRight=20;" parent="1" vertex="1">
            <mxGeometry x="1420" y="650" width="150" height="75" as="geometry" />
          </mxCell>
        </object>
        <object label="" id="pGx4nGiqQ51gGt1jWvF4-1">
          <ag_attributes />
          <ag_computed_attributes />
          <mxCell style="endArrow=none;dashed=1;html=1;rounded=0;strokeWidth=1;strokeColor=#000000;" parent="1" edge="1">
            <mxGeometry width="50" height="50" relative="1" as="geometry">
              <mxPoint x="9.999999999999773" y="1070" as="sourcePoint" />
              <mxPoint x="1650" y="1070" as="targetPoint" />
            </mxGeometry>
          </mxCell>
        </object>
        <object label="Integrity Protection of Environment Monitoring" Resources="1" Knowledge="1" Location="0" id="pGx4nGiqQ51gGt1jWvF4-2">
          <ag_attributes />
          <ag_computed_attributes />
          <mxCell style="shape=attackgraphs.node;fillColor=#DAE8FC;verticalAlign=top;" parent="1" vertex="1">
            <mxGeometry x="330" y="1080" width="220" height="45" as="geometry" />
          </mxCell>
        </object>
        <object label="Access Restriction" Resources="1" Knowledge="1" Location="0" id="pGx4nGiqQ51gGt1jWvF4-3">
          <ag_attributes />
          <ag_computed_attributes />
          <mxCell style="shape=attackgraphs.node;fillColor=#DAE8FC;verticalAlign=top;" parent="1" vertex="1">
            <mxGeometry x="140" y="1000" width="140" height="45" as="geometry" />
          </mxCell>
        </object>
        <object label="Digital Signature" Resources="2" Knowledge="2" Location="1" id="pGx4nGiqQ51gGt1jWvF4-13">
          <ag_attributes />
          <ag_computed_attributes />
          <mxCell style="shape=attackgraphs.node;fillColor=#DAE8FC;verticalAlign=top;" parent="1" vertex="1">
            <mxGeometry x="1460" y="1000" width="120" height="45" as="geometry" />
          </mxCell>
        </object>
        <object label="Robustness" Resources="2" Knowledge="2" Location="0" id="pGx4nGiqQ51gGt1jWvF4-16">
          <ag_attributes />
          <ag_computed_attributes />
          <mxCell style="shape=attackgraphs.node;fillColor=#DAE8FC;verticalAlign=top;" parent="1" vertex="1">
            <mxGeometry x="1070" y="1080" width="120" height="45" as="geometry" />
          </mxCell>
        </object>
        <object label="Awareness Training" Resources="1" Knowledge="1" Location="0" id="pGx4nGiqQ51gGt1jWvF4-17">
          <ag_attributes />
          <ag_computed_attributes />
          <mxCell style="shape=attackgraphs.node;fillColor=#DAE8FC;verticalAlign=top;" parent="1" vertex="1">
            <mxGeometry x="950" y="1000" width="120" height="45" as="geometry" />
          </mxCell>
        </object>
        <object label="Business Continuity Management" Impact="2" id="pGx4nGiqQ51gGt1jWvF4-27">
          <ag_attributes />
          <ag_computed_attributes />
          <mxCell style="shape=attackgraphs.node;fillColor=#DAE8FC;fontSize=12;align=left;verticalAlign=top;spacingLeft=2;whiteSpace=wrap;" parent="1" vertex="1">
            <mxGeometry x="760" y="355" width="120" height="65" as="geometry" />
          </mxCell>
        </object>
        <object id="pGx4nGiqQ51gGt1jWvF4-29">
          <ag_attributes />
          <ag_computed_attributes />
          <mxCell style="edgeStyle=none;rounded=0;orthogonalLoop=1;jettySize=auto;html=1;strokeWidth=2;exitX=0.5;exitY=1;exitDx=0;exitDy=0;startArrow=none;startFill=0;endArrow=classic;endFill=1;strokeColor=#000000;" parent="1" source="pGx4nGiqQ51gGt1jWvF4-28" target="4FoC0Xb7QVFsULFS3Stp-8" edge="1">
            <mxGeometry relative="1" as="geometry" />
          </mxCell>
        </object>
        <object id="pGx4nGiqQ51gGt1jWvF4-30">
          <ag_attributes />
          <ag_computed_attributes />
          <mxCell style="edgeStyle=none;rounded=0;orthogonalLoop=1;jettySize=auto;html=1;strokeWidth=2;startArrow=diamondThin;startFill=1;endArrow=none;endFill=0;strokeColor=#000000;" parent="1" source="pGx4nGiqQ51gGt1jWvF4-28" target="pGx4nGiqQ51gGt1jWvF4-27" edge="1">
            <mxGeometry relative="1" as="geometry" />
          </mxCell>
        </object>
        <object label="" id="pGx4nGiqQ51gGt1jWvF4-28">
          <ag_attributes _af="1" _marking="4FoC0Xb7QVFsULFS3Stp-8" _impact="2" />
          <ag_computed_attributes />
          <ag_aggregation_function_reference ag_aggregation_function_reference="397423adceb0f" />
          <mxCell style="shape=attackgraphs.node;allowArrows=0;" parent="1" vertex="1">
            <mxGeometry x="1120" y="290" width="21" height="20" as="geometry" />
          </mxCell>
        </object>
        <object id="pGx4nGiqQ51gGt1jWvF4-33">
          <ag_attributes />
          <ag_computed_attributes />
          <mxCell style="edgeStyle=none;rounded=0;orthogonalLoop=1;jettySize=auto;html=1;strokeWidth=2;startArrow=none;startFill=0;endArrow=classic;endFill=1;strokeColor=#000000;" parent="1" source="pGx4nGiqQ51gGt1jWvF4-31" target="-ZSPk6_3D4UuBSjLZNT9-6" edge="1">
            <mxGeometry relative="1" as="geometry" />
          </mxCell>
        </object>
        <object id="pGx4nGiqQ51gGt1jWvF4-34">
          <ag_attributes />
          <ag_computed_attributes />
          <mxCell style="edgeStyle=none;rounded=0;orthogonalLoop=1;jettySize=auto;html=1;strokeWidth=2;exitX=0.75;exitY=1;exitDx=0;exitDy=0;startArrow=diamondThin;startFill=1;endArrow=none;endFill=0;strokeColor=#000000;" parent="1" source="pGx4nGiqQ51gGt1jWvF4-31" target="pGx4nGiqQ51gGt1jWvF4-27" edge="1">
            <mxGeometry relative="1" as="geometry" />
          </mxCell>
        </object>
        <object label="" id="pGx4nGiqQ51gGt1jWvF4-31">
          <ag_attributes _af="1" _marking="-ZSPk6_3D4UuBSjLZNT9-6" _impact="2" />
          <ag_computed_attributes />
          <ag_aggregation_function_reference ag_aggregation_function_reference="397423adceb0f" />
          <mxCell style="shape=attackgraphs.node;allowArrows=0;" parent="1" vertex="1">
            <mxGeometry x="630" y="280" width="21" height="20" as="geometry" />
          </mxCell>
        </object>
        <object label="Plausibility Check" Resources="2" Knowledge="2" Location="0" id="VVgaZvm0cS7WgkDVir1b-1">
          <ag_attributes />
          <ag_computed_attributes />
          <mxCell style="shape=attackgraphs.node;fillColor=#DAE8FC;verticalAlign=top;" parent="1" vertex="1">
            <mxGeometry x="610" y="1000" width="120" height="45" as="geometry" />
          </mxCell>
        </object>
        <object label="Plausibility Check&#10;Validation of plans" Resources="2" Knowledge="2" Location="0" id="VVgaZvm0cS7WgkDVir1b-2">
          <ag_attributes />
          <ag_computed_attributes />
          <mxCell style="shape=attackgraphs.node;fillColor=#DAE8FC;verticalAlign=top;" parent="1" vertex="1">
            <mxGeometry x="737" y="1000" width="190" height="60" as="geometry" />
          </mxCell>
        </object>
        <object label="Access Control" Resources="1" Knowledge="1" Location="0" id="VVgaZvm0cS7WgkDVir1b-3">
          <ag_attributes />
          <ag_computed_attributes />
          <mxCell style="shape=attackgraphs.node;fillColor=#DAE8FC;verticalAlign=top;" parent="1" vertex="1">
            <mxGeometry x="1210" y="1000" width="120" height="45" as="geometry" />
          </mxCell>
        </object>
      </root>
    </mxGraphModel>
  </diagram>
</mxfile>